<svg width="721" height="300" viewBox="0 0 721 300" fill="none" xmlns="http://www.w3.org/2000/svg">
<g opacity="0.3" clip-path="url(#clip0)">
<path d="M701.5 5C702.881 5 704 3.88071 704 2.5C704 1.11929 702.881 0 701.5 0C700.119 0 699 1.11929 699 2.5C699 3.88071 700.119 5 701.5 5Z" fill="#C9CCDC"/>
<path d="M701.5 45C702.881 45 704 43.8807 704 42.5C704 41.1193 702.881 40 701.5 40C700.119 40 699 41.1193 699 42.5C699 43.8807 700.119 45 701.5 45Z" fill="#C9CCDC"/>
<path d="M701.5 85C702.881 85 704 83.8807 704 82.5C704 81.1193 702.881 80 701.5 80C700.119 80 699 81.1193 699 82.5C699 83.8807 700.119 85 701.5 85Z" fill="#C9CCDC"/>
<path d="M701.5 125C702.881 125 704 123.881 704 122.5C704 121.119 702.881 120 701.5 120C700.119 120 699 121.119 699 122.5C699 123.881 700.119 125 701.5 125Z" fill="#C9CCDC"/>
<path d="M701.5 165C702.881 165 704 163.881 704 162.5C704 161.119 702.881 160 701.5 160C700.119 160 699 161.119 699 162.5C699 163.881 700.119 165 701.5 165Z" fill="#C9CCDC"/>
<path d="M701.5 205C702.881 205 704 203.881 704 202.5C704 201.119 702.881 200 701.5 200C700.119 200 699 201.119 699 202.5C699 203.881 700.119 205 701.5 205Z" fill="#C9CCDC"/>
<path d="M701.5 245C702.881 245 704 243.881 704 242.5C704 241.119 702.881 240 701.5 240C700.119 240 699 241.119 699 242.5C699 243.881 700.119 245 701.5 245Z" fill="#C9CCDC"/>
<path d="M701.5 285C702.881 285 704 283.881 704 282.5C704 281.119 702.881 280 701.5 280C700.119 280 699 281.119 699 282.5C699 283.881 700.119 285 701.5 285Z" fill="#C9CCDC"/>
<path d="M661.5 5C662.881 5 664 3.88071 664 2.5C664 1.11929 662.881 0 661.5 0C660.119 0 659 1.11929 659 2.5C659 3.88071 660.119 5 661.5 5Z" fill="#C9CCDC"/>
<path d="M661.5 45C662.881 45 664 43.8807 664 42.5C664 41.1193 662.881 40 661.5 40C660.119 40 659 41.1193 659 42.5C659 43.8807 660.119 45 661.5 45Z" fill="#C9CCDC"/>
<path d="M661.5 85C662.881 85 664 83.8807 664 82.5C664 81.1193 662.881 80 661.5 80C660.119 80 659 81.1193 659 82.5C659 83.8807 660.119 85 661.5 85Z" fill="#C9CCDC"/>
<path d="M661.5 125C662.881 125 664 123.881 664 122.5C664 121.119 662.881 120 661.5 120C660.119 120 659 121.119 659 122.5C659 123.881 660.119 125 661.5 125Z" fill="#C9CCDC"/>
<path d="M661.5 165C662.881 165 664 163.881 664 162.5C664 161.119 662.881 160 661.5 160C660.119 160 659 161.119 659 162.5C659 163.881 660.119 165 661.5 165Z" fill="#C9CCDC"/>
<path d="M661.5 205C662.881 205 664 203.881 664 202.5C664 201.119 662.881 200 661.5 200C660.119 200 659 201.119 659 202.5C659 203.881 660.119 205 661.5 205Z" fill="#C9CCDC"/>
<path d="M661.5 245C662.881 245 664 243.881 664 242.5C664 241.119 662.881 240 661.5 240C660.119 240 659 241.119 659 242.5C659 243.881 660.119 245 661.5 245Z" fill="#C9CCDC"/>
<path d="M661.5 285C662.881 285 664 283.881 664 282.5C664 281.119 662.881 280 661.5 280C660.119 280 659 281.119 659 282.5C659 283.881 660.119 285 661.5 285Z" fill="#C9CCDC"/>
<path d="M621.5 5C622.881 5 624 3.88071 624 2.5C624 1.11929 622.881 0 621.5 0C620.119 0 619 1.11929 619 2.5C619 3.88071 620.119 5 621.5 5Z" fill="#C9CCDC"/>
<path d="M621.5 45C622.881 45 624 43.8807 624 42.5C624 41.1193 622.881 40 621.5 40C620.119 40 619 41.1193 619 42.5C619 43.8807 620.119 45 621.5 45Z" fill="#C9CCDC"/>
<path d="M621.5 85C622.881 85 624 83.8807 624 82.5C624 81.1193 622.881 80 621.5 80C620.119 80 619 81.1193 619 82.5C619 83.8807 620.119 85 621.5 85Z" fill="#C9CCDC"/>
<path d="M621.5 125C622.881 125 624 123.881 624 122.5C624 121.119 622.881 120 621.5 120C620.119 120 619 121.119 619 122.5C619 123.881 620.119 125 621.5 125Z" fill="#C9CCDC"/>
<path d="M621.5 165C622.881 165 624 163.881 624 162.5C624 161.119 622.881 160 621.5 160C620.119 160 619 161.119 619 162.5C619 163.881 620.119 165 621.5 165Z" fill="#C9CCDC"/>
<path d="M621.5 205C622.881 205 624 203.881 624 202.5C624 201.119 622.881 200 621.5 200C620.119 200 619 201.119 619 202.5C619 203.881 620.119 205 621.5 205Z" fill="#C9CCDC"/>
<path d="M621.5 245C622.881 245 624 243.881 624 242.5C624 241.119 622.881 240 621.5 240C620.119 240 619 241.119 619 242.5C619 243.881 620.119 245 621.5 245Z" fill="#C9CCDC"/>
<path d="M621.5 285C622.881 285 624 283.881 624 282.5C624 281.119 622.881 280 621.5 280C620.119 280 619 281.119 619 282.5C619 283.881 620.119 285 621.5 285Z" fill="#C9CCDC"/>
<path d="M581.5 5C582.881 5 584 3.88071 584 2.5C584 1.11929 582.881 0 581.5 0C580.119 0 579 1.11929 579 2.5C579 3.88071 580.119 5 581.5 5Z" fill="#C9CCDC"/>
<path d="M581.5 45C582.881 45 584 43.8807 584 42.5C584 41.1193 582.881 40 581.5 40C580.119 40 579 41.1193 579 42.5C579 43.8807 580.119 45 581.5 45Z" fill="#C9CCDC"/>
<path d="M581.5 85C582.881 85 584 83.8807 584 82.5C584 81.1193 582.881 80 581.5 80C580.119 80 579 81.1193 579 82.5C579 83.8807 580.119 85 581.5 85Z" fill="#C9CCDC"/>
<path d="M581.5 125C582.881 125 584 123.881 584 122.5C584 121.119 582.881 120 581.5 120C580.119 120 579 121.119 579 122.5C579 123.881 580.119 125 581.5 125Z" fill="#C9CCDC"/>
<path d="M581.5 165C582.881 165 584 163.881 584 162.5C584 161.119 582.881 160 581.5 160C580.119 160 579 161.119 579 162.5C579 163.881 580.119 165 581.5 165Z" fill="#C9CCDC"/>
<path d="M581.5 205C582.881 205 584 203.881 584 202.5C584 201.119 582.881 200 581.5 200C580.119 200 579 201.119 579 202.5C579 203.881 580.119 205 581.5 205Z" fill="#C9CCDC"/>
<path d="M581.5 245C582.881 245 584 243.881 584 242.5C584 241.119 582.881 240 581.5 240C580.119 240 579 241.119 579 242.5C579 243.881 580.119 245 581.5 245Z" fill="#C9CCDC"/>
<path d="M581.5 285C582.881 285 584 283.881 584 282.5C584 281.119 582.881 280 581.5 280C580.119 280 579 281.119 579 282.5C579 283.881 580.119 285 581.5 285Z" fill="#C9CCDC"/>
<path d="M541.5 5C542.881 5 544 3.88071 544 2.5C544 1.11929 542.881 0 541.5 0C540.119 0 539 1.11929 539 2.5C539 3.88071 540.119 5 541.5 5Z" fill="#C9CCDC"/>
<path d="M541.5 45C542.881 45 544 43.8807 544 42.5C544 41.1193 542.881 40 541.5 40C540.119 40 539 41.1193 539 42.5C539 43.8807 540.119 45 541.5 45Z" fill="#C9CCDC"/>
<path d="M541.5 85C542.881 85 544 83.8807 544 82.5C544 81.1193 542.881 80 541.5 80C540.119 80 539 81.1193 539 82.5C539 83.8807 540.119 85 541.5 85Z" fill="#C9CCDC"/>
<path d="M541.5 125C542.881 125 544 123.881 544 122.5C544 121.119 542.881 120 541.5 120C540.119 120 539 121.119 539 122.5C539 123.881 540.119 125 541.5 125Z" fill="#C9CCDC"/>
<path d="M541.5 165C542.881 165 544 163.881 544 162.5C544 161.119 542.881 160 541.5 160C540.119 160 539 161.119 539 162.5C539 163.881 540.119 165 541.5 165Z" fill="#C9CCDC"/>
<path d="M541.5 205C542.881 205 544 203.881 544 202.5C544 201.119 542.881 200 541.5 200C540.119 200 539 201.119 539 202.5C539 203.881 540.119 205 541.5 205Z" fill="#C9CCDC"/>
<path d="M541.5 245C542.881 245 544 243.881 544 242.5C544 241.119 542.881 240 541.5 240C540.119 240 539 241.119 539 242.5C539 243.881 540.119 245 541.5 245Z" fill="#C9CCDC"/>
<path d="M541.5 285C542.881 285 544 283.881 544 282.5C544 281.119 542.881 280 541.5 280C540.119 280 539 281.119 539 282.5C539 283.881 540.119 285 541.5 285Z" fill="#C9CCDC"/>
<path d="M501.5 5C502.881 5 504 3.88071 504 2.5C504 1.11929 502.881 0 501.5 0C500.119 0 499 1.11929 499 2.5C499 3.88071 500.119 5 501.5 5Z" fill="#C9CCDC"/>
<path d="M501.5 45C502.881 45 504 43.8807 504 42.5C504 41.1193 502.881 40 501.5 40C500.119 40 499 41.1193 499 42.5C499 43.8807 500.119 45 501.5 45Z" fill="#C9CCDC"/>
<path d="M501.5 85C502.881 85 504 83.8807 504 82.5C504 81.1193 502.881 80 501.5 80C500.119 80 499 81.1193 499 82.5C499 83.8807 500.119 85 501.5 85Z" fill="#C9CCDC"/>
<path d="M501.5 125C502.881 125 504 123.881 504 122.5C504 121.119 502.881 120 501.5 120C500.119 120 499 121.119 499 122.5C499 123.881 500.119 125 501.5 125Z" fill="#C9CCDC"/>
<path d="M501.5 165C502.881 165 504 163.881 504 162.5C504 161.119 502.881 160 501.5 160C500.119 160 499 161.119 499 162.5C499 163.881 500.119 165 501.5 165Z" fill="#C9CCDC"/>
<path d="M501.5 205C502.881 205 504 203.881 504 202.5C504 201.119 502.881 200 501.5 200C500.119 200 499 201.119 499 202.5C499 203.881 500.119 205 501.5 205Z" fill="#C9CCDC"/>
<path d="M501.5 245C502.881 245 504 243.881 504 242.5C504 241.119 502.881 240 501.5 240C500.119 240 499 241.119 499 242.5C499 243.881 500.119 245 501.5 245Z" fill="#C9CCDC"/>
<path d="M501.5 285C502.881 285 504 283.881 504 282.5C504 281.119 502.881 280 501.5 280C500.119 280 499 281.119 499 282.5C499 283.881 500.119 285 501.5 285Z" fill="#C9CCDC"/>
<path d="M461.5 5C462.881 5 464 3.88071 464 2.5C464 1.11929 462.881 0 461.5 0C460.119 0 459 1.11929 459 2.5C459 3.88071 460.119 5 461.5 5Z" fill="#C9CCDC"/>
<path d="M461.5 45C462.881 45 464 43.8807 464 42.5C464 41.1193 462.881 40 461.5 40C460.119 40 459 41.1193 459 42.5C459 43.8807 460.119 45 461.5 45Z" fill="#C9CCDC"/>
<path d="M461.5 85C462.881 85 464 83.8807 464 82.5C464 81.1193 462.881 80 461.5 80C460.119 80 459 81.1193 459 82.5C459 83.8807 460.119 85 461.5 85Z" fill="#C9CCDC"/>
<path d="M461.5 125C462.881 125 464 123.881 464 122.5C464 121.119 462.881 120 461.5 120C460.119 120 459 121.119 459 122.5C459 123.881 460.119 125 461.5 125Z" fill="#C9CCDC"/>
<path d="M461.5 165C462.881 165 464 163.881 464 162.5C464 161.119 462.881 160 461.5 160C460.119 160 459 161.119 459 162.5C459 163.881 460.119 165 461.5 165Z" fill="#35E05B"/>
<path d="M461.5 205C462.881 205 464 203.881 464 202.5C464 201.119 462.881 200 461.5 200C460.119 200 459 201.119 459 202.5C459 203.881 460.119 205 461.5 205Z" fill="#C9CCDC"/>
<path d="M461.5 245C462.881 245 464 243.881 464 242.5C464 241.119 462.881 240 461.5 240C460.119 240 459 241.119 459 242.5C459 243.881 460.119 245 461.5 245Z" fill="#C9CCDC"/>
<path d="M461.5 285C462.881 285 464 283.881 464 282.5C464 281.119 462.881 280 461.5 280C460.119 280 459 281.119 459 282.5C459 283.881 460.119 285 461.5 285Z" fill="#C9CCDC"/>
<path d="M421.5 5C422.881 5 424 3.88071 424 2.5C424 1.11929 422.881 0 421.5 0C420.119 0 419 1.11929 419 2.5C419 3.88071 420.119 5 421.5 5Z" fill="#C9CCDC"/>
<path d="M421.5 45C422.881 45 424 43.8807 424 42.5C424 41.1193 422.881 40 421.5 40C420.119 40 419 41.1193 419 42.5C419 43.8807 420.119 45 421.5 45Z" fill="#C9CCDC"/>
<path d="M421.5 85C422.881 85 424 83.8807 424 82.5C424 81.1193 422.881 80 421.5 80C420.119 80 419 81.1193 419 82.5C419 83.8807 420.119 85 421.5 85Z" fill="#C9CCDC"/>
<path d="M421.5 125C422.881 125 424 123.881 424 122.5C424 121.119 422.881 120 421.5 120C420.119 120 419 121.119 419 122.5C419 123.881 420.119 125 421.5 125Z" fill="#C9CCDC"/>
<path d="M421.5 165C422.881 165 424 163.881 424 162.5C424 161.119 422.881 160 421.5 160C420.119 160 419 161.119 419 162.5C419 163.881 420.119 165 421.5 165Z" fill="#C9CCDC"/>
<path d="M421.5 205C422.881 205 424 203.881 424 202.5C424 201.119 422.881 200 421.5 200C420.119 200 419 201.119 419 202.5C419 203.881 420.119 205 421.5 205Z" fill="#C9CCDC"/>
<path d="M421.5 245C422.881 245 424 243.881 424 242.5C424 241.119 422.881 240 421.5 240C420.119 240 419 241.119 419 242.5C419 243.881 420.119 245 421.5 245Z" fill="#C9CCDC"/>
<path d="M421.5 285C422.881 285 424 283.881 424 282.5C424 281.119 422.881 280 421.5 280C420.119 280 419 281.119 419 282.5C419 283.881 420.119 285 421.5 285Z" fill="#C9CCDC"/>
<path d="M381.5 5C382.881 5 384 3.88071 384 2.5C384 1.11929 382.881 0 381.5 0C380.119 0 379 1.11929 379 2.5C379 3.88071 380.119 5 381.5 5Z" fill="#C9CCDC"/>
<path d="M381.5 45C382.881 45 384 43.8807 384 42.5C384 41.1193 382.881 40 381.5 40C380.119 40 379 41.1193 379 42.5C379 43.8807 380.119 45 381.5 45Z" fill="#C9CCDC"/>
<path d="M381.5 85C382.881 85 384 83.8807 384 82.5C384 81.1193 382.881 80 381.5 80C380.119 80 379 81.1193 379 82.5C379 83.8807 380.119 85 381.5 85Z" fill="#C9CCDC"/>
<path d="M381.5 125C382.881 125 384 123.881 384 122.5C384 121.119 382.881 120 381.5 120C380.119 120 379 121.119 379 122.5C379 123.881 380.119 125 381.5 125Z" fill="#C9CCDC"/>
<path d="M381.5 165C382.881 165 384 163.881 384 162.5C384 161.119 382.881 160 381.5 160C380.119 160 379 161.119 379 162.5C379 163.881 380.119 165 381.5 165Z" fill="#C9CCDC"/>
<path d="M381.5 205C382.881 205 384 203.881 384 202.5C384 201.119 382.881 200 381.5 200C380.119 200 379 201.119 379 202.5C379 203.881 380.119 205 381.5 205Z" fill="#C9CCDC"/>
<path d="M381.5 245C382.881 245 384 243.881 384 242.5C384 241.119 382.881 240 381.5 240C380.119 240 379 241.119 379 242.5C379 243.881 380.119 245 381.5 245Z" fill="#C9CCDC"/>
<path d="M381.5 285C382.881 285 384 283.881 384 282.5C384 281.119 382.881 280 381.5 280C380.119 280 379 281.119 379 282.5C379 283.881 380.119 285 381.5 285Z" fill="#C9CCDC"/>
<path d="M341.5 5C342.881 5 344 3.88071 344 2.5C344 1.11929 342.881 0 341.5 0C340.119 0 339 1.11929 339 2.5C339 3.88071 340.119 5 341.5 5Z" fill="#C9CCDC"/>
<path d="M341.5 45C342.881 45 344 43.8807 344 42.5C344 41.1193 342.881 40 341.5 40C340.119 40 339 41.1193 339 42.5C339 43.8807 340.119 45 341.5 45Z" fill="#C9CCDC"/>
<path d="M341.5 85C342.881 85 344 83.8807 344 82.5C344 81.1193 342.881 80 341.5 80C340.119 80 339 81.1193 339 82.5C339 83.8807 340.119 85 341.5 85Z" fill="#C9CCDC"/>
<path d="M341.5 125C342.881 125 344 123.881 344 122.5C344 121.119 342.881 120 341.5 120C340.119 120 339 121.119 339 122.5C339 123.881 340.119 125 341.5 125Z" fill="#C9CCDC"/>
<path d="M341.5 165C342.881 165 344 163.881 344 162.5C344 161.119 342.881 160 341.5 160C340.119 160 339 161.119 339 162.5C339 163.881 340.119 165 341.5 165Z" fill="#C9CCDC"/>
<path d="M341.5 205C342.881 205 344 203.881 344 202.5C344 201.119 342.881 200 341.5 200C340.119 200 339 201.119 339 202.5C339 203.881 340.119 205 341.5 205Z" fill="#C9CCDC"/>
<path d="M341.5 245C342.881 245 344 243.881 344 242.5C344 241.119 342.881 240 341.5 240C340.119 240 339 241.119 339 242.5C339 243.881 340.119 245 341.5 245Z" fill="#C9CCDC"/>
<path d="M341.5 285C342.881 285 344 283.881 344 282.5C344 281.119 342.881 280 341.5 280C340.119 280 339 281.119 339 282.5C339 283.881 340.119 285 341.5 285Z" fill="#C9CCDC"/>
<path d="M301.5 5C302.881 5 304 3.88071 304 2.5C304 1.11929 302.881 0 301.5 0C300.119 0 299 1.11929 299 2.5C299 3.88071 300.119 5 301.5 5Z" fill="#C9CCDC"/>
<path d="M301.5 45C302.881 45 304 43.8807 304 42.5C304 41.1193 302.881 40 301.5 40C300.119 40 299 41.1193 299 42.5C299 43.8807 300.119 45 301.5 45Z" fill="#C9CCDC"/>
<path d="M301.5 85C302.881 85 304 83.8807 304 82.5C304 81.1193 302.881 80 301.5 80C300.119 80 299 81.1193 299 82.5C299 83.8807 300.119 85 301.5 85Z" fill="#C9CCDC"/>
<path d="M301.5 125C302.881 125 304 123.881 304 122.5C304 121.119 302.881 120 301.5 120C300.119 120 299 121.119 299 122.5C299 123.881 300.119 125 301.5 125Z" fill="#C9CCDC"/>
<path d="M301.5 165C302.881 165 304 163.881 304 162.5C304 161.119 302.881 160 301.5 160C300.119 160 299 161.119 299 162.5C299 163.881 300.119 165 301.5 165Z" fill="#C9CCDC"/>
<path d="M301.5 205C302.881 205 304 203.881 304 202.5C304 201.119 302.881 200 301.5 200C300.119 200 299 201.119 299 202.5C299 203.881 300.119 205 301.5 205Z" fill="#C9CCDC"/>
<path d="M301.5 245C302.881 245 304 243.881 304 242.5C304 241.119 302.881 240 301.5 240C300.119 240 299 241.119 299 242.5C299 243.881 300.119 245 301.5 245Z" fill="#C9CCDC"/>
<path d="M301.5 285C302.881 285 304 283.881 304 282.5C304 281.119 302.881 280 301.5 280C300.119 280 299 281.119 299 282.5C299 283.881 300.119 285 301.5 285Z" fill="#C9CCDC"/>
<path d="M261.5 5C262.881 5 264 3.88071 264 2.5C264 1.11929 262.881 0 261.5 0C260.119 0 259 1.11929 259 2.5C259 3.88071 260.119 5 261.5 5Z" fill="#C9CCDC"/>
<path d="M261.5 45C262.881 45 264 43.8807 264 42.5C264 41.1193 262.881 40 261.5 40C260.119 40 259 41.1193 259 42.5C259 43.8807 260.119 45 261.5 45Z" fill="#C9CCDC"/>
<path d="M261.5 85C262.881 85 264 83.8807 264 82.5C264 81.1193 262.881 80 261.5 80C260.119 80 259 81.1193 259 82.5C259 83.8807 260.119 85 261.5 85Z" fill="#C9CCDC"/>
<path d="M261.5 125C262.881 125 264 123.881 264 122.5C264 121.119 262.881 120 261.5 120C260.119 120 259 121.119 259 122.5C259 123.881 260.119 125 261.5 125Z" fill="#C9CCDC"/>
<path d="M261.5 165C262.881 165 264 163.881 264 162.5C264 161.119 262.881 160 261.5 160C260.119 160 259 161.119 259 162.5C259 163.881 260.119 165 261.5 165Z" fill="#C9CCDC"/>
<path d="M261.5 205C262.881 205 264 203.881 264 202.5C264 201.119 262.881 200 261.5 200C260.119 200 259 201.119 259 202.5C259 203.881 260.119 205 261.5 205Z" fill="#C9CCDC"/>
<path d="M261.5 245C262.881 245 264 243.881 264 242.5C264 241.119 262.881 240 261.5 240C260.119 240 259 241.119 259 242.5C259 243.881 260.119 245 261.5 245Z" fill="#C9CCDC"/>
<path d="M261.5 285C262.881 285 264 283.881 264 282.5C264 281.119 262.881 280 261.5 280C260.119 280 259 281.119 259 282.5C259 283.881 260.119 285 261.5 285Z" fill="#C9CCDC"/>
<path d="M221.5 5C222.881 5 224 3.88071 224 2.5C224 1.11929 222.881 0 221.5 0C220.119 0 219 1.11929 219 2.5C219 3.88071 220.119 5 221.5 5Z" fill="#C9CCDC"/>
<path d="M221.5 45C222.881 45 224 43.8807 224 42.5C224 41.1193 222.881 40 221.5 40C220.119 40 219 41.1193 219 42.5C219 43.8807 220.119 45 221.5 45Z" fill="#C9CCDC"/>
<path d="M221.5 85C222.881 85 224 83.8807 224 82.5C224 81.1193 222.881 80 221.5 80C220.119 80 219 81.1193 219 82.5C219 83.8807 220.119 85 221.5 85Z" fill="#C9CCDC"/>
<path d="M221.5 125C222.881 125 224 123.881 224 122.5C224 121.119 222.881 120 221.5 120C220.119 120 219 121.119 219 122.5C219 123.881 220.119 125 221.5 125Z" fill="#C9CCDC"/>
<path d="M221.5 165C222.881 165 224 163.881 224 162.5C224 161.119 222.881 160 221.5 160C220.119 160 219 161.119 219 162.5C219 163.881 220.119 165 221.5 165Z" fill="#C9CCDC"/>
<path d="M221.5 205C222.881 205 224 203.881 224 202.5C224 201.119 222.881 200 221.5 200C220.119 200 219 201.119 219 202.5C219 203.881 220.119 205 221.5 205Z" fill="#C9CCDC"/>
<path d="M221.5 245C222.881 245 224 243.881 224 242.5C224 241.119 222.881 240 221.5 240C220.119 240 219 241.119 219 242.5C219 243.881 220.119 245 221.5 245Z" fill="#C9CCDC"/>
<path d="M221.5 285C222.881 285 224 283.881 224 282.5C224 281.119 222.881 280 221.5 280C220.119 280 219 281.119 219 282.5C219 283.881 220.119 285 221.5 285Z" fill="#C9CCDC"/>
<path d="M181.5 5C182.881 5 184 3.88071 184 2.5C184 1.11929 182.881 0 181.5 0C180.119 0 179 1.11929 179 2.5C179 3.88071 180.119 5 181.5 5Z" fill="#C9CCDC"/>
<path d="M181.5 45C182.881 45 184 43.8807 184 42.5C184 41.1193 182.881 40 181.5 40C180.119 40 179 41.1193 179 42.5C179 43.8807 180.119 45 181.5 45Z" fill="#C9CCDC"/>
<path d="M181.5 85C182.881 85 184 83.8807 184 82.5C184 81.1193 182.881 80 181.5 80C180.119 80 179 81.1193 179 82.5C179 83.8807 180.119 85 181.5 85Z" fill="#C9CCDC"/>
<path d="M181.5 125C182.881 125 184 123.881 184 122.5C184 121.119 182.881 120 181.5 120C180.119 120 179 121.119 179 122.5C179 123.881 180.119 125 181.5 125Z" fill="#C9CCDC"/>
<path d="M181.5 165C182.881 165 184 163.881 184 162.5C184 161.119 182.881 160 181.5 160C180.119 160 179 161.119 179 162.5C179 163.881 180.119 165 181.5 165Z" fill="#C9CCDC"/>
<path d="M181.5 205C182.881 205 184 203.881 184 202.5C184 201.119 182.881 200 181.5 200C180.119 200 179 201.119 179 202.5C179 203.881 180.119 205 181.5 205Z" fill="#C9CCDC"/>
<path d="M181.5 245C182.881 245 184 243.881 184 242.5C184 241.119 182.881 240 181.5 240C180.119 240 179 241.119 179 242.5C179 243.881 180.119 245 181.5 245Z" fill="#C9CCDC"/>
<path d="M181.5 285C182.881 285 184 283.881 184 282.5C184 281.119 182.881 280 181.5 280C180.119 280 179 281.119 179 282.5C179 283.881 180.119 285 181.5 285Z" fill="#C9CCDC"/>
<path d="M141.5 5C142.881 5 144 3.88071 144 2.5C144 1.11929 142.881 0 141.5 0C140.119 0 139 1.11929 139 2.5C139 3.88071 140.119 5 141.5 5Z" fill="#C9CCDC"/>
<path d="M141.5 45C142.881 45 144 43.8807 144 42.5C144 41.1193 142.881 40 141.5 40C140.119 40 139 41.1193 139 42.5C139 43.8807 140.119 45 141.5 45Z" fill="#C9CCDC"/>
<path d="M141.5 85C142.881 85 144 83.8807 144 82.5C144 81.1193 142.881 80 141.5 80C140.119 80 139 81.1193 139 82.5C139 83.8807 140.119 85 141.5 85Z" fill="#C9CCDC"/>
<path d="M141.5 125C142.881 125 144 123.881 144 122.5C144 121.119 142.881 120 141.5 120C140.119 120 139 121.119 139 122.5C139 123.881 140.119 125 141.5 125Z" fill="#C9CCDC"/>
<path d="M141.5 165C142.881 165 144 163.881 144 162.5C144 161.119 142.881 160 141.5 160C140.119 160 139 161.119 139 162.5C139 163.881 140.119 165 141.5 165Z" fill="#C9CCDC"/>
<path d="M141.5 205C142.881 205 144 203.881 144 202.5C144 201.119 142.881 200 141.5 200C140.119 200 139 201.119 139 202.5C139 203.881 140.119 205 141.5 205Z" fill="#C9CCDC"/>
<path d="M141.5 245C142.881 245 144 243.881 144 242.5C144 241.119 142.881 240 141.5 240C140.119 240 139 241.119 139 242.5C139 243.881 140.119 245 141.5 245Z" fill="#C9CCDC"/>
<path d="M141.5 285C142.881 285 144 283.881 144 282.5C144 281.119 142.881 280 141.5 280C140.119 280 139 281.119 139 282.5C139 283.881 140.119 285 141.5 285Z" fill="#C9CCDC"/>
<path d="M101.5 5C102.881 5 104 3.88071 104 2.5C104 1.11929 102.881 0 101.5 0C100.119 0 99 1.11929 99 2.5C99 3.88071 100.119 5 101.5 5Z" fill="#C9CCDC"/>
<path d="M101.5 45C102.881 45 104 43.8807 104 42.5C104 41.1193 102.881 40 101.5 40C100.119 40 99 41.1193 99 42.5C99 43.8807 100.119 45 101.5 45Z" fill="#C9CCDC"/>
<path d="M101.5 85C102.881 85 104 83.8807 104 82.5C104 81.1193 102.881 80 101.5 80C100.119 80 99 81.1193 99 82.5C99 83.8807 100.119 85 101.5 85Z" fill="#C9CCDC"/>
<path d="M101.5 125C102.881 125 104 123.881 104 122.5C104 121.119 102.881 120 101.5 120C100.119 120 99 121.119 99 122.5C99 123.881 100.119 125 101.5 125Z" fill="#C9CCDC"/>
<path d="M101.5 165C102.881 165 104 163.881 104 162.5C104 161.119 102.881 160 101.5 160C100.119 160 99 161.119 99 162.5C99 163.881 100.119 165 101.5 165Z" fill="#C9CCDC"/>
<path d="M101.5 205C102.881 205 104 203.881 104 202.5C104 201.119 102.881 200 101.5 200C100.119 200 99 201.119 99 202.5C99 203.881 100.119 205 101.5 205Z" fill="#C9CCDC"/>
<path d="M101.5 245C102.881 245 104 243.881 104 242.5C104 241.119 102.881 240 101.5 240C100.119 240 99 241.119 99 242.5C99 243.881 100.119 245 101.5 245Z" fill="#C9CCDC"/>
<path d="M101.5 285C102.881 285 104 283.881 104 282.5C104 281.119 102.881 280 101.5 280C100.119 280 99 281.119 99 282.5C99 283.881 100.119 285 101.5 285Z" fill="#C9CCDC"/>
<path d="M61.5 5C62.8807 5 64 3.88071 64 2.5C64 1.11929 62.8807 0 61.5 0C60.1193 0 59 1.11929 59 2.5C59 3.88071 60.1193 5 61.5 5Z" fill="#C9CCDC"/>
<path d="M61.5 45C62.8807 45 64 43.8807 64 42.5C64 41.1193 62.8807 40 61.5 40C60.1193 40 59 41.1193 59 42.5C59 43.8807 60.1193 45 61.5 45Z" fill="#C9CCDC"/>
<path d="M61.5 85C62.8807 85 64 83.8807 64 82.5C64 81.1193 62.8807 80 61.5 80C60.1193 80 59 81.1193 59 82.5C59 83.8807 60.1193 85 61.5 85Z" fill="#C9CCDC"/>
<path d="M61.5 125C62.8807 125 64 123.881 64 122.5C64 121.119 62.8807 120 61.5 120C60.1193 120 59 121.119 59 122.5C59 123.881 60.1193 125 61.5 125Z" fill="#C9CCDC"/>
<path d="M61.5 165C62.8807 165 64 163.881 64 162.5C64 161.119 62.8807 160 61.5 160C60.1193 160 59 161.119 59 162.5C59 163.881 60.1193 165 61.5 165Z" fill="#C9CCDC"/>
<path d="M61.5 205C62.8807 205 64 203.881 64 202.5C64 201.119 62.8807 200 61.5 200C60.1193 200 59 201.119 59 202.5C59 203.881 60.1193 205 61.5 205Z" fill="#C9CCDC"/>
<path d="M61.5 245C62.8807 245 64 243.881 64 242.5C64 241.119 62.8807 240 61.5 240C60.1193 240 59 241.119 59 242.5C59 243.881 60.1193 245 61.5 245Z" fill="#C9CCDC"/>
<path d="M61.5 285C62.8807 285 64 283.881 64 282.5C64 281.119 62.8807 280 61.5 280C60.1193 280 59 281.119 59 282.5C59 283.881 60.1193 285 61.5 285Z" fill="#C9CCDC"/>
<path d="M21.5 5C22.8807 5 24 3.88071 24 2.5C24 1.11929 22.8807 0 21.5 0C20.1193 0 19 1.11929 19 2.5C19 3.88071 20.1193 5 21.5 5Z" fill="#C9CCDC"/>
<path d="M21.5 45C22.8807 45 24 43.8807 24 42.5C24 41.1193 22.8807 40 21.5 40C20.1193 40 19 41.1193 19 42.5C19 43.8807 20.1193 45 21.5 45Z" fill="#C9CCDC"/>
<path d="M21.5 85C22.8807 85 24 83.8807 24 82.5C24 81.1193 22.8807 80 21.5 80C20.1193 80 19 81.1193 19 82.5C19 83.8807 20.1193 85 21.5 85Z" fill="#C9CCDC"/>
<path d="M21.5 125C22.8807 125 24 123.881 24 122.5C24 121.119 22.8807 120 21.5 120C20.1193 120 19 121.119 19 122.5C19 123.881 20.1193 125 21.5 125Z" fill="#C9CCDC"/>
<path d="M21.5 165C22.8807 165 24 163.881 24 162.5C24 161.119 22.8807 160 21.5 160C20.1193 160 19 161.119 19 162.5C19 163.881 20.1193 165 21.5 165Z" fill="#C9CCDC"/>
<path d="M21.5 205C22.8807 205 24 203.881 24 202.5C24 201.119 22.8807 200 21.5 200C20.1193 200 19 201.119 19 202.5C19 203.881 20.1193 205 21.5 205Z" fill="#C9CCDC"/>
<path d="M21.5 245C22.8807 245 24 243.881 24 242.5C24 241.119 22.8807 240 21.5 240C20.1193 240 19 241.119 19 242.5C19 243.881 20.1193 245 21.5 245Z" fill="#C9CCDC"/>
<path d="M21.5 285C22.8807 285 24 283.881 24 282.5C24 281.119 22.8807 280 21.5 280C20.1193 280 19 281.119 19 282.5C19 283.881 20.1193 285 21.5 285Z" fill="#C9CCDC"/>
</g>
<defs>
<clipPath id="clip0">
<rect width="723" height="300" fill="white"/>
</clipPath>
</defs>
</svg>
